<svg xmlns="http://www.w3.org/2000/svg" 
width="204pt" 
height="275px" viewBox="-80 -50 300 300">
<g transform="translate(-80,245) scale(0.15,-0.15)" fill="#0e1435">
<path d="M1005 1752 c-5 -4 -32 -40 -59 -81 -26 -41 -80 -107 -120 -148 -39 -40 -71 -79 -71 -86 0 -7 14 -12 38 -12 20 0 37 -2 37 -5 0 -3 -32 -43 -70 -90 -39 -47 -68 -89 -67 -95 5 -15 86 -18 105 -4 9 7 -34 -39 -97 -103 -62 -65 -111 -123 -109 -130 3 -8 30 -15 78 -18 l73 -5 -117 -112 c-64 -62 -116 -119 -116 -127 0 -24 36 -28 214 -24 142 3 166 1 166 -12 0 -8 -5 -55 -10 -104 -8 -71 -8 -91 2 -98 17 -10 249 -10 266 0 10 7 10 27 2 98 -5 49 -10 96 -10 104 0 13 23 14 165 11 178 -3 215 1 215 25 0 8 -52 66 -117 127 l-116 112 73 5 c48 3 75 10 78 18 2 7 -42 60 -98 117 l-103 104 48 3 c27 2 50 8 52 14 2 7 -28 49 -67 95 -38 46 -70 86 -70 89 0 3 15 4 34 2 22 -3 35 1 39 10 7 20 0 28 -56 68 -57 40 -129 132 -164 208 -25 53 -30 58 -48 44z m117 -229 c48 -48 49 -51 27 -55 -38 -5 -29 -30 44 -117 37 -45 67 -83 67 -85 0 -2 -17 -2 -38 1 -27 4 -42 1 -51 -11 -11 -13 0 -29 83 -118 l96 -103 -73 -5 c-55 -4 -73 -9 -75 -21 -2 -10 45 -62 119 -133 l121 -116 -427 0 -427 0 123 118 c146 140 149 154 42 152 -38 -1 -71 -1 -76 -1 -4 1 6 13 21 29 16 15 62 62 102 104 62 66 71 80 60 93 -14 17 -53 20 -81 5 -10 -6 -19 -9 -19 -6 0 2 34 44 75 92 41 49 74 96 72 104 -1 10 -14 15 -35 15 -17 0 -32 1 -32 2 0 1 23 25 50 54 28 29 67 77 86 107 l36 54 30 -53 c16 -30 52 -77 80 -106z m-28 -835 c3 -13 7 -51 10 -85 l6 -63 -96 0 -96 0 6 38 c3 20 7 58 8 85 l2 47 78 0 c72 0 78 -1 82 -22z"/>
</g>
</svg>